<?xml version="1.0" standalone="no"?>
<!DOCTYPE svg PUBLIC "-//W3C//DTD SVG 20010904//EN"
 "http://www.w3.org/TR/2001/REC-SVG-20010904/DTD/svg10.dtd">
<svg version="1.0" xmlns="http://www.w3.org/2000/svg"
 width="866.000000pt" height="650.000000pt" viewBox="0 0 866.000000 650.000000"
 preserveAspectRatio="xMidYMid meet">

<g transform="translate(0.000000,650.000000) scale(0.100000,-0.100000)"
fill="#000000" stroke="none">
<path d="M2520 6235 c-154 -38 -229 -93 -520 -379 -261 -257 -345 -324 -512
-411 -90 -47 -441 -175 -479 -175 -8 0 4 12 26 27 22 15 101 70 175 123 74 53
146 102 158 109 62 33 -6 17 -205 -49 -344 -115 -588 -219 -694 -296 -26 -19
-57 -55 -75 -86 -28 -52 -29 -57 -29 -193 0 -160 20 -272 87 -490 119 -389
296 -742 603 -1205 156 -234 208 -299 265 -328 88 -46 163 -16 310 125 50 47
92 84 94 82 9 -11 37 -111 46 -169 6 -36 15 -166 20 -290 9 -243 26 -383 67
-554 19 -82 22 -110 13 -116 -6 -4 -37 -13 -68 -19 -136 -29 -312 -141 -407
-257 -41 -51 -125 -184 -125 -198 0 -4 26 15 58 41 76 62 274 157 398 190 90
24 115 27 279 27 152 0 192 -4 257 -22 294 -81 533 -268 648 -507 51 -105 74
-207 67 -302 -3 -39 -10 -80 -16 -90 -10 -17 -10 -16 -11 3 0 49 -72 166 -152
246 -43 44 -81 79 -83 76 -2 -2 7 -27 20 -55 89 -186 65 -478 -40 -478 -25 0
-34 7 -57 50 -16 28 -37 82 -49 120 -66 222 -111 330 -181 433 -39 58 -105
134 -125 145 -16 9 -10 -1 43 -88 36 -60 81 -208 93 -314 25 -202 -25 -427
-102 -462 -16 -7 -32 -6 -58 5 -55 23 -93 60 -147 140 -53 79 -78 137 -166
378 -88 239 -88 239 -82 -57 4 -159 11 -277 20 -325 8 -41 15 -81 15 -87 1
-22 -28 -15 -100 23 -78 41 -168 131 -211 209 -68 127 -105 304 -88 423 5 36
7 68 5 70 -2 2 -17 -15 -34 -38 -59 -81 -92 -208 -112 -421 -6 -68 -15 -128
-19 -132 -14 -16 -70 46 -105 116 -84 171 -86 403 -5 517 34 47 19 45 -21 -3
-121 -145 -169 -270 -169 -438 0 -91 17 -163 56 -241 13 -26 24 -49 24 -52 0
-2 -35 -12 -77 -21 -198 -43 -610 -179 -699 -229 -29 -17 -27 -17 51 3 59 15
261 47 556 86 223 30 279 35 378 29 84 -4 128 -2 161 8 l45 14 60 -49 c124
-102 297 -159 525 -173 183 -11 435 29 602 96 89 36 113 40 325 64 501 55 847
76 1278 76 429 0 848 -24 1230 -70 88 -10 192 -22 230 -26 40 -4 89 -16 115
-29 163 -82 495 -131 720 -106 200 22 322 66 439 162 l64 51 53 -12 c36 -9 86
-11 156 -6 82 5 144 1 298 -19 248 -32 500 -71 613 -94 49 -10 85 -15 80 -10
-13 13 -320 125 -450 165 -65 19 -165 47 -223 60 -57 14 -106 27 -108 29 -2 1
8 25 21 52 41 80 57 150 57 247 0 141 -40 257 -135 392 -62 87 -83 100 -46 28
38 -76 50 -130 51 -229 0 -138 -53 -296 -120 -360 -42 -40 -56 -28 -64 52 -25
259 -71 428 -136 503 -18 20 -20 21 -14 5 4 -11 10 -64 12 -117 5 -119 -19
-224 -79 -344 -65 -133 -191 -251 -287 -270 -38 -8 -38 -8 -17 121 19 112 31
490 17 525 -9 24 -11 22 -36 -34 -15 -33 -52 -130 -83 -215 -77 -215 -128
-314 -199 -385 -33 -33 -95 -66 -123 -66 -30 0 -69 55 -93 133 -20 63 -23 92
-22 227 1 132 5 169 26 250 25 94 55 165 98 234 30 49 17 45 -37 -11 -95 -98
-182 -260 -227 -423 -52 -186 -68 -231 -92 -260 -38 -45 -71 -38 -104 20 -22
39 -25 60 -29 165 -4 136 9 208 47 275 l27 45 -30 -22 c-41 -29 -136 -131
-162 -173 -12 -20 -28 -57 -35 -83 -6 -26 -15 -47 -19 -47 -12 0 -24 88 -22
155 7 243 234 538 518 675 188 90 447 124 647 86 159 -31 371 -123 479 -209
45 -35 51 -38 44 -18 -31 97 -195 283 -309 351 -33 19 -109 51 -168 71 -60 20
-109 38 -110 40 0 2 9 47 21 99 35 156 50 284 61 505 5 116 12 239 15 275 6
69 43 240 52 240 3 0 42 -34 87 -77 149 -140 216 -171 301 -139 62 24 118 90
267 312 301 449 474 787 592 1154 81 250 120 462 114 610 -5 108 -22 153 -83
212 -76 73 -348 196 -689 309 -114 38 -217 74 -227 80 -10 5 -19 6 -18 2 0 -8
122 -99 298 -222 58 -40 98 -71 89 -68 -9 3 -65 20 -125 38 -369 109 -562 230
-878 549 -99 100 -213 208 -254 241 -143 116 -279 165 -431 156 -255 -17 -428
-168 -645 -565 -58 -107 -71 -123 -89 -119 -12 3 -66 19 -121 36 -482 152
-1144 147 -1628 -13 -66 -22 -100 -29 -106 -22 -4 6 -34 60 -66 120 -208 392
-420 568 -680 565 -38 0 -95 -7 -125 -14z m410 -589 c0 -2 -25 -20 -56 -41
-135 -89 -348 -323 -494 -542 -151 -227 -209 -367 -303 -734 -66 -254 -101
-357 -171 -504 -98 -206 -217 -374 -375 -533 -89 -91 -146 -138 -170 -144 -11
-2 -14 7 -13 42 6 122 47 223 188 461 257 438 316 603 370 1033 14 111 32 234
40 275 41 196 152 385 296 498 96 76 122 85 62 22 -101 -105 -151 -217 -187
-419 -14 -74 -24 -136 -22 -138 2 -2 14 21 28 50 30 65 106 172 180 255 153
171 317 288 547 389 81 36 80 36 80 30z m3100 -145 c209 -130 358 -283 508
-526 18 -27 32 -48 32 -45 0 16 -42 223 -56 270 -26 89 -91 204 -157 276 -71
77 -64 76 50 -12 94 -74 140 -124 193 -214 81 -136 117 -266 155 -570 52 -413
124 -616 363 -1015 145 -243 192 -359 192 -473 l0 -53 -32 18 c-49 28 -216
198 -296 301 -202 263 -295 472 -416 937 -60 234 -82 296 -151 439 -131 268
-420 622 -632 773 -25 18 -48 35 -52 38 -18 19 229 -101 299 -144z m-1969 12
c34 -12 90 -17 246 -21 186 -4 235 0 322 24 19 6 15 -1 -21 -34 -56 -52 -93
-120 -113 -207 -23 -100 -18 -116 22 -64 40 51 118 111 198 151 l60 30 -68
-70 c-82 -86 -130 -181 -157 -313 -11 -51 -17 -95 -15 -97 2 -2 16 20 31 49
27 53 129 164 192 208 30 21 29 18 -18 -44 -82 -108 -124 -206 -165 -382 -21
-89 -18 -97 9 -31 40 98 126 226 194 292 l31 29 -41 -77 c-118 -226 -171 -496
-171 -866 1 -542 137 -979 385 -1233 29 -29 134 -113 233 -187 222 -164 274
-209 361 -311 84 -99 134 -171 185 -271 37 -74 89 -212 89 -239 0 -7 -23 21
-52 62 -52 74 -217 253 -250 270 -10 5 6 -26 36 -70 30 -43 71 -113 90 -155
39 -82 96 -243 96 -271 0 -10 -31 -46 -70 -82 -179 -166 -286 -420 -278 -663
l2 -85 -44 -8 c-25 -4 -103 -6 -175 -4 -155 6 -255 32 -410 107 -139 67 -218
121 -303 205 -99 100 -116 140 -113 276 l1 57 78 17 c168 36 329 141 426 279
186 262 181 515 -13 706 -74 73 -187 136 -301 167 -92 25 -375 25 -475 0 -114
-29 -228 -91 -304 -166 -145 -143 -185 -317 -117 -511 84 -243 281 -420 529
-475 l77 -17 0 -87 c0 -107 -18 -149 -97 -233 -113 -118 -319 -235 -518 -293
-98 -29 -300 -44 -384 -28 l-43 8 1 120 c2 147 -19 239 -84 370 -48 97 -153
236 -216 287 -48 38 -48 49 -8 175 39 123 106 262 159 332 23 29 39 55 37 58
-11 10 -206 -197 -255 -270 -58 -87 -63 -84 -28 19 40 115 64 164 133 267 113
170 264 315 518 496 129 92 239 199 300 291 168 255 257 588 272 1020 12 364
-45 667 -177 935 l-49 100 35 -40 c76 -88 146 -185 179 -251 41 -82 44 -63 10
66 -38 140 -96 256 -174 345 -18 20 -20 25 -6 15 73 -52 142 -122 186 -188
l52 -77 -8 60 c-17 140 -79 268 -176 361 -32 29 -55 54 -53 54 3 0 24 -10 47
-21 71 -36 163 -106 211 -161 l46 -53 -6 35 c-25 152 -53 213 -126 283 -28 26
-48 47 -45 47 2 0 24 -7 48 -17z m-880 -1100 c49 -5 58 -8 39 -14 -14 -4 -41
-7 -61 -8 -61 -2 -190 -39 -276 -80 -119 -57 -189 -108 -277 -202 l-78 -83 30
59 c126 250 333 359 623 328z m2597 -26 c140 -49 240 -139 313 -282 34 -68 36
-75 13 -45 -141 178 -376 304 -629 336 l-60 8 45 7 c86 14 243 2 318 -24z
m-2614 -705 c126 -59 212 -170 237 -305 40 -219 -121 -434 -353 -470 -128 -20
-260 24 -354 117 -217 218 -125 578 174 677 87 29 210 21 296 -19z m2625 19
c160 -50 263 -164 292 -325 50 -268 -205 -517 -479 -467 -303 56 -443 387
-270 638 94 137 295 205 457 154z m-1234 -1155 c82 -26 153 -65 215 -119 61
-52 53 -58 -22 -17 -116 62 -199 81 -373 87 -125 4 -166 2 -249 -16 -95 -19
-215 -68 -277 -112 -49 -35 -32 -4 27 51 123 112 285 163 489 155 81 -3 132
-11 190 -29z m-453 -383 c100 -59 94 -207 -10 -278 -48 -33 -62 -32 -29 3 35
37 67 109 67 154 0 49 -14 83 -46 113 -31 29 -24 32 18 8z m478 -11 c-58 -59
-57 -151 5 -242 l33 -50 -27 15 c-40 20 -88 78 -96 115 -15 67 14 138 70 171
43 27 48 23 15 -9z m-150 -1304 c52 -23 142 -59 200 -79 l105 -38 -425 0 -425
0 75 19 c72 18 224 74 320 119 25 11 47 21 50 21 3 0 48 -19 100 -42z"/>
<path d="M2901 3665 c-71 -20 -110 -45 -165 -106 -144 -160 -91 -420 105 -518
141 -71 290 -43 398 74 185 201 52 534 -224 559 -39 4 -79 0 -114 -9z m95
-137 c49 -49 40 -144 -17 -173 -64 -34 -140 -3 -160 64 -14 48 -1 90 40 122
35 28 103 21 137 -13z"/>
<path d="M5602 3670 c-60 -13 -137 -57 -179 -103 -88 -98 -113 -245 -61 -358
71 -154 231 -235 386 -195 119 30 208 113 242 224 24 77 25 109 5 185 -26 102
-90 178 -185 221 -63 28 -146 39 -208 26z m58 -125 c32 -17 60 -61 60 -95 0
-62 -65 -117 -128 -106 -98 16 -123 145 -38 197 38 23 67 24 106 4z"/>
</g>
</svg>
